<svg width="1240" height="1240" viewBox="0 0 1240 1240" fill="none" xmlns="http://www.w3.org/2000/svg">
<g clip-path="url(#clip0_101_31)">
<circle cx="620" cy="620" r="620" fill="#F53435"/>
<path d="M693.774 1113.38H562.259L548.168 1010.04L717.259 972.466L778.319 1085.19L693.774 1113.38Z" fill="white"/>
<path d="M707.865 930.194L585.743 939.587V991.254L712.562 963.072L707.865 930.194Z" fill="white"/>
<path d="M543.471 944.284H571.653V991.254L543.471 995.951V944.284Z" fill="white"/>
<path d="M712.562 822.163L707.865 920.8L548.168 930.194L552.865 812.769V803.375L571.653 779.89L543.471 803.375L482.41 831.557H440.137L407.259 808.072L383.774 747.012V601.406H435.44L449.531 751.709L473.016 756.406L515.289 714.133L562.259 671.86V643.678L548.168 610.8L646.804 601.406V615.497L651.501 648.375C676.552 664.032 726.653 680.315 726.653 732.921L712.562 822.163Z" fill="white"/>
<path fill-rule="evenodd" clip-rule="evenodd" d="M558.159 1118.07L542.93 1006.39L719.7 967.112L785.116 1087.88L694.536 1118.07H558.159ZM581.046 935.238L706.649 925.576L543.267 935.187L548.168 812.675V805.575L546.002 807.38L483.442 836.254H438.632L403.381 811.075L379.077 747.884V596.709H439.718L453.881 747.789L471.472 751.307L512.055 710.724L557.562 669.768V644.642L541.315 606.734L651.501 596.24V615.163L655.838 645.522C659.489 647.708 663.577 649.908 668.02 652.299C670.594 653.685 673.288 655.135 676.086 656.684C684.381 661.275 693.271 666.577 701.416 673.133C717.835 686.35 731.349 704.805 731.349 732.921V733.289L717.241 822.643L712.355 925.241L711.905 925.267L717.826 966.714L581.046 997.109V935.238ZM712.562 822.163L726.652 732.921C726.652 689.198 692.043 670.567 665.972 656.532C660.675 653.681 655.731 651.019 651.501 648.375L646.804 615.497V601.406L548.168 610.8L562.259 643.678V671.86L515.289 714.133L473.016 756.406L449.531 751.709L435.44 601.406H383.774V747.012L407.259 808.072L440.137 831.557H482.41L543.471 803.375L571.653 779.891L552.865 803.375V812.769L548.168 930.194L707.865 920.8L712.562 822.163ZM576.349 939.587V995.233L538.774 1001.5V939.587H576.349ZM693.774 1113.38H562.259L548.168 1010.04L717.259 972.466L778.319 1085.19L693.774 1113.38ZM585.743 939.587L707.865 930.194L712.562 963.072L585.743 991.254V939.587ZM543.471 944.284H571.653V991.254L543.471 995.951V944.284Z" fill="#F53435"/>
<path d="M712.562 1071.1C681.248 1008.48 632.713 928.315 632.713 826.86C646.804 789.284 664.652 693.466 623.319 610.8C623.319 610.8 637.41 601.406 674.986 601.406C712.562 601.406 806.501 732.921 806.501 732.921C812.764 761.103 858.168 844.709 989.683 953.678L712.562 1071.1Z" fill="white"/>
<path fill-rule="evenodd" clip-rule="evenodd" d="M628.016 826.008L628.315 825.211C642.156 788.303 659.647 693.957 619.118 612.9L617.264 609.191L620.714 606.891L623.319 610.8C664.653 693.466 646.804 789.284 632.713 826.86C632.713 916.059 670.23 988.798 700.575 1047.63C704.745 1055.72 708.779 1063.54 712.562 1071.1L989.683 953.678C988.32 952.549 986.966 951.422 985.621 950.298C857.231 842.981 812.699 760.811 806.501 732.921L810.323 730.191L810.879 730.969L811.086 731.902C814.003 745.026 826.453 772.336 854.878 810.183C883.202 847.897 927.167 895.78 992.68 950.062L998.627 954.99L710.333 1077.15L708.361 1073.2C704.609 1065.7 700.593 1057.92 696.432 1049.85C666.099 991.077 628.016 917.282 628.016 826.86V826.008ZM627.525 608.708C634.109 605.94 648.88 601.406 674.986 601.406C712.562 601.406 806.501 732.921 806.501 732.921C810.323 730.191 810.324 730.192 810.323 730.191L810.251 730.09L810.044 729.802L809.242 728.69C808.538 727.718 807.504 726.296 806.176 724.489C803.521 720.874 799.688 715.714 794.972 709.525C785.545 697.151 772.569 680.636 758.401 664.106C744.253 647.601 728.819 630.966 714.48 618.42C707.315 612.15 700.312 606.803 693.792 603C687.37 599.254 680.922 596.709 674.986 596.709C655.804 596.709 642.45 599.107 633.771 601.586C629.433 602.826 626.271 604.084 624.14 605.067C623.075 605.559 622.268 605.981 621.703 606.298C621.421 606.456 621.198 606.588 621.034 606.688L620.831 606.815L620.762 606.86L620.735 606.877L620.724 606.885C620.721 606.886 620.714 606.891 623.319 610.8C623.319 610.8 624.587 609.954 627.377 608.77C627.426 608.75 627.475 608.729 627.525 608.708Z" fill="#F53435"/>
<path fill-rule="evenodd" clip-rule="evenodd" d="M533.208 265.25C491.703 265.25 458.056 231.604 458.056 190.099C458.056 148.594 491.703 114.947 533.208 114.947C569.77 114.947 600.234 141.057 606.971 175.649C612.198 176.255 617.255 177.008 622.128 177.906C647.553 182.587 669.397 191.464 683.768 205.385C698.96 220.1 704.879 239.691 698.768 261.538C692.992 282.188 676.851 303.669 651.277 325.589L650.489 326.265L358.145 510.159L357.886 510.307C350.389 514.591 346.227 518.101 344.153 520.555C343.805 520.967 343.543 521.314 343.349 521.597C343.548 521.783 343.797 522.001 344.107 522.248C346.186 523.903 349.847 525.915 355.467 527.895C378.348 535.953 420.285 538.955 460.742 533.122C468.445 532.011 475.589 537.355 476.7 545.057C477.81 552.76 472.467 559.904 464.764 561.015C421.545 567.246 374.674 564.538 346.105 554.476C338.864 551.926 331.997 548.632 326.547 544.29C321.111 539.959 315.899 533.584 314.872 524.939C313.827 516.144 317.509 508.424 322.626 502.367C327.625 496.451 334.817 491.056 343.638 485.99L633.714 303.523C656.929 283.467 668.066 266.682 671.628 253.947C674.895 242.268 672.084 233.303 664.16 225.627C655.416 217.157 639.761 209.808 617.025 205.622C613.817 205.031 610.496 204.508 607.065 204.057C600.523 238.892 569.943 265.25 533.208 265.25ZM342.839 522.485C342.825 522.544 342.814 522.573 342.811 522.574C342.808 522.574 342.815 522.545 342.839 522.485Z" fill="white"/>
<path d="M707.865 413.527C707.865 465.408 657.395 455.8 595.137 455.8C532.88 455.8 482.41 465.408 482.41 413.527C482.41 361.646 532.88 338.375 595.137 338.375C657.395 338.375 707.865 361.646 707.865 413.527Z" fill="white"/>
<path d="M482.41 413.527H707.865V465.194L595.137 474.587L482.41 465.194V413.527Z" fill="white"/>
<path d="M590.843 292.182L614.034 328.103L612.817 368.382L-nan -nanL612.817 368.382C606.69 385.551 587.547 394.446 570.341 388.423L-nan -nanL570.341 388.423L586.811 346.171L590.843 292.182Z" fill="white"/>
<path fill-rule="evenodd" clip-rule="evenodd" d="M612.817 368.382L614.034 328.103L590.843 292.182L586.811 346.171L570.341 388.423C571.848 388.951 573.37 389.364 574.897 389.667C590.801 392.824 607.227 384.047 612.817 368.382ZM576.634 385.211C589.838 387.435 603.242 380.187 608.146 367.471L609.295 329.423L594.485 306.483L591.443 347.221L576.634 385.211Z" fill="#F53435"/>
<path fill-rule="evenodd" clip-rule="evenodd" d="M707.865 460.497H482.41V483.981L463.622 516.86L482.41 535.648L477.713 545.042L482.41 549.739L477.713 554.436L482.41 563.83C482.41 584.582 526.571 601.406 581.046 601.406C635.522 601.406 679.683 584.582 679.683 563.83L698.471 526.254L707.865 460.497Z" fill="white"/>
<path fill-rule="evenodd" clip-rule="evenodd" d="M477.713 554.436L482.41 563.83C482.41 584.582 526.571 601.406 581.046 601.406C635.522 601.406 679.683 584.582 679.683 563.83L698.471 526.254L707.865 460.497H482.41V483.981L463.622 516.86L482.41 535.648L477.713 545.042L482.41 549.739L477.713 554.436ZM483.428 544.115L489.053 549.739L483.428 555.363L487.107 562.721V563.83C487.107 567.222 488.894 570.993 493.305 574.966C497.715 578.938 504.36 582.73 512.972 586.011C530.163 592.56 554.23 596.709 581.046 596.709C607.863 596.709 631.929 592.56 649.121 586.011C657.733 582.73 664.378 578.938 668.788 574.966C673.199 570.993 674.986 567.222 674.986 563.83V562.721L693.929 524.835L702.449 465.194H487.107V485.229L469.48 516.076L488.125 534.721L483.428 544.115Z" fill="#F53435"/>
<path d="M449.531 538.333C449.531 545.598 441.916 583.15 432.21 594.696C422.816 594.696 407.083 594.696 394.634 594.696C371.288 594.696 364.986 553.897 364.986 538.333C364.986 522.768 383.912 519.545 407.259 519.545C430.605 519.545 449.531 522.768 449.531 538.333Z" fill="white"/>
<path fill-rule="evenodd" clip-rule="evenodd" d="M375.46 570.721C379.879 582.665 386.233 589.999 394.634 589.999H429.858C431.418 587.659 433.045 584.357 434.643 580.313C436.634 575.279 438.442 569.462 439.971 563.704C441.497 557.955 442.726 552.339 443.57 547.734C444.438 542.999 444.834 539.673 444.834 538.333C444.834 535.483 444.002 533.471 442.646 531.891C441.21 530.218 438.918 528.73 435.56 527.522C428.737 525.068 418.882 524.242 407.259 524.242C395.635 524.242 385.78 525.068 378.957 527.522C375.599 528.73 373.307 530.218 371.871 531.891C370.515 533.471 369.683 535.483 369.683 538.333C369.683 545.69 371.2 559.208 375.46 570.721ZM432.21 594.696C441.916 583.15 449.531 545.598 449.531 538.333C449.531 522.768 430.605 519.545 407.259 519.545C383.912 519.545 364.986 522.768 364.986 538.333C364.986 553.897 371.288 594.696 394.634 594.696H432.21Z" fill="#F53435"/>
</g>
<defs>
<clipPath id="clip0_101_31">
<rect width="1240" height="1240" fill="white"/>
</clipPath>
</defs>
</svg>
